<svg xmlns="http://www.w3.org/2000/svg" width="2000" height="888" viewBox="0 0 2000 888" shape-rendering="geometricPrecision">
<g fill-rule="evenodd"><path fill="#3a5a50" d="M 1220.00 538.00 L 1220.00 542.00 L 1223.00 549.00 L 1226.00 554.00 L 1228.00 559.00 L 1230.00 567.00 L 1232.00 572.00 L 1236.00 579.00 L 1238.00 584.00 L 1241.00 594.00 L 1245.00 604.00 L 1248.00 609.00 L 1254.00 624.00 L 1255.00 629.00 L 1257.00 633.00 L 1280.00 633.00 L 1281.00 631.00 L 1282.00 629.00 L 1286.00 620.00 L 1288.00 615.00 L 1291.00 605.00 L 1293.00 600.00 L 1298.00 590.00 L 1300.00 585.00 L 1302.00 580.00 L 1306.00 567.00 L 1310.00 560.00 L 1312.00 555.00 L 1317.00 542.00 L 1318.00 539.00 L 1297.00 539.00 L 1296.00 541.00 L 1295.00 543.00 L 1295.00 545.00 L 1291.00 552.00 L 1287.00 565.00 L 1281.00 577.00 L 1275.00 592.00 L 1269.00 608.00 L 1267.00 606.00 L 1266.00 602.00 L 1262.00 591.00 L 1258.00 584.00 L 1256.00 579.00 L 1254.00 574.00 L 1252.00 566.00 L 1250.00 561.00 L 1246.00 554.00 L 1243.00 544.00 L 1240.00 538.00 Z
M 482.00 538.00 L 482.00 541.00 L 484.00 547.00 L 486.00 554.00 L 489.00 563.00 L 494.00 574.00 L 496.00 580.00 L 497.00 583.00 L 499.00 592.00 L 500.00 595.00 L 505.00 606.00 L 512.00 629.00 L 514.00 633.00 L 537.00 633.00 L 537.00 631.00 L 539.00 627.00 L 543.00 617.00 L 552.00 588.00 L 557.00 574.00 L 558.00 573.00 L 559.00 571.00 L 562.00 577.00 L 562.00 580.00 L 566.00 588.00 L 570.00 603.00 L 571.00 606.00 L 576.00 620.00 L 578.00 623.00 L 579.00 628.00 L 580.00 631.00 L 581.00 633.00 L 605.00 632.00 L 606.00 629.00 L 607.00 626.00 L 607.00 623.00 L 610.00 614.00 L 616.00 600.00 L 618.00 594.00 L 620.00 585.00 L 621.00 582.00 L 627.00 568.00 L 636.00 541.00 L 636.00 538.00 L 617.00 538.00 L 615.00 540.00 L 614.00 543.00 L 612.00 548.00 L 608.00 560.00 L 605.00 572.00 L 598.00 590.00 L 595.00 602.00 L 591.00 605.00 L 590.00 602.00 L 589.00 597.00 L 587.00 594.00 L 586.00 591.00 L 585.00 588.00 L 579.00 566.00 L 578.00 563.00 L 572.00 548.00 L 572.00 545.00 L 571.00 542.00 L 569.00 538.00 L 548.00 539.00 L 547.00 541.00 L 546.00 547.00 L 543.00 557.00 L 534.00 581.00 L 534.00 584.00 L 527.00 605.00 L 525.00 607.00 L 523.00 603.00 L 521.00 597.00 L 520.00 591.00 L 519.00 588.00 L 518.00 585.00 L 516.00 582.00 L 513.00 573.00 L 508.00 554.00 L 507.00 551.00 L 506.00 548.00 L 504.00 545.00 L 503.00 540.00 L 502.00 538.00 Z
M 1878.00 537.00 L 1874.00 538.00 L 1872.00 539.00 L 1870.00 540.00 L 1867.00 542.00 L 1863.00 545.00 L 1858.00 551.00 L 1854.00 552.00 L 1854.00 538.00 L 1834.00 538.00 L 1834.00 633.00 L 1854.00 633.00 L 1854.00 588.00 L 1855.00 581.00 L 1856.00 577.00 L 1857.00 574.00 L 1858.00 572.00 L 1859.00 570.00 L 1861.00 567.00 L 1866.00 562.00 L 1869.00 560.00 L 1871.00 559.00 L 1874.00 558.00 L 1879.00 558.00 L 1885.00 556.00 L 1884.00 537.00 Z
M 1758.00 537.00 L 1753.00 538.00 L 1750.00 539.00 L 1745.00 541.00 L 1740.00 544.00 L 1737.00 546.00 L 1732.00 550.00 L 1730.00 552.00 L 1730.00 553.00 L 1727.00 556.00 L 1725.00 559.00 L 1722.00 565.00 L 1720.00 570.00 L 1719.00 574.00 L 1719.00 597.00 L 1720.00 601.00 L 1722.00 606.00 L 1725.00 612.00 L 1729.00 618.00 L 1733.00 622.00 L 1737.00 625.00 L 1740.00 627.00 L 1743.00 629.00 L 1745.00 630.00 L 1747.00 631.00 L 1750.00 632.00 L 1753.00 633.00 L 1758.00 634.00 L 1776.00 634.00 L 1781.00 633.00 L 1785.00 632.00 L 1788.00 631.00 L 1794.00 628.00 L 1797.00 626.00 L 1800.00 624.00 L 1805.00 620.00 L 1806.00 618.00 L 1804.00 616.00 L 1804.00 615.00 L 1794.00 606.00 L 1789.00 611.00 L 1781.00 615.00 L 1777.00 616.00 L 1773.00 617.00 L 1764.00 617.00 L 1759.00 616.00 L 1754.00 614.00 L 1752.00 613.00 L 1749.00 611.00 L 1742.00 604.00 L 1741.00 602.00 L 1740.00 600.00 L 1739.00 597.00 L 1740.00 594.00 L 1812.00 594.00 L 1812.00 570.00 L 1811.00 566.00 L 1810.00 563.00 L 1809.00 561.00 L 1808.00 559.00 L 1806.00 556.00 L 1804.00 553.00 L 1798.00 547.00 L 1795.00 545.00 L 1792.00 543.00 L 1784.00 539.00 L 1780.00 538.00 L 1775.00 537.00 Z
M 1763.00 554.00 L 1771.00 554.00 L 1775.00 555.00 L 1778.00 556.00 L 1780.00 557.00 L 1782.00 558.00 L 1789.00 565.00 L 1790.00 567.00 L 1791.00 569.00 L 1792.00 573.00 L 1791.00 578.00 L 1739.00 577.00 L 1739.00 573.00 L 1740.00 570.00 L 1741.00 568.00 L 1743.00 565.00 L 1746.00 562.00 L 1750.00 559.00 L 1756.00 556.00 L 1759.00 555.00 Z
M 1650.00 537.00 L 1646.00 538.00 L 1643.00 539.00 L 1641.00 540.00 L 1638.00 542.00 L 1635.00 544.00 L 1626.00 550.00 L 1626.00 539.00 L 1606.00 539.00 L 1606.00 668.00 L 1626.00 668.00 L 1628.00 622.00 L 1632.00 626.00 L 1639.00 631.00 L 1641.00 632.00 L 1646.00 634.00 L 1651.00 635.00 L 1666.00 635.00 L 1670.00 634.00 L 1673.00 633.00 L 1679.00 630.00 L 1682.00 628.00 L 1686.00 625.00 L 1691.00 620.00 L 1694.00 616.00 L 1696.00 613.00 L 1700.00 605.00 L 1701.00 601.00 L 1702.00 596.00 L 1702.00 575.00 L 1701.00 570.00 L 1700.00 566.00 L 1697.00 560.00 L 1695.00 557.00 L 1693.00 554.00 L 1685.00 546.00 L 1682.00 544.00 L 1679.00 542.00 L 1673.00 539.00 L 1669.00 538.00 L 1664.00 537.00 Z
M 1648.00 555.00 L 1659.00 555.00 L 1663.00 556.00 L 1665.00 557.00 L 1667.00 558.00 L 1670.00 560.00 L 1676.00 566.00 L 1678.00 569.00 L 1679.00 571.00 L 1680.00 573.00 L 1681.00 576.00 L 1682.00 581.00 L 1682.00 592.00 L 1681.00 597.00 L 1678.00 603.00 L 1676.00 606.00 L 1671.00 611.00 L 1667.00 614.00 L 1665.00 615.00 L 1662.00 616.00 L 1659.00 617.00 L 1648.00 617.00 L 1645.00 616.00 L 1639.00 613.00 L 1631.00 605.00 L 1627.00 597.00 L 1626.00 592.00 L 1626.00 581.00 L 1627.00 576.00 L 1628.00 573.00 L 1629.00 571.00 L 1630.00 569.00 L 1632.00 566.00 L 1639.00 559.00 L 1644.00 556.00 Z
M 1524.00 537.00 L 1519.00 538.00 L 1516.00 539.00 L 1510.00 542.00 L 1505.00 545.00 L 1500.00 549.00 L 1495.00 554.00 L 1493.00 557.00 L 1490.00 562.00 L 1489.00 564.00 L 1488.00 566.00 L 1485.00 575.00 L 1484.00 584.00 L 1484.00 586.00 L 1485.00 596.00 L 1486.00 599.00 L 1487.00 602.00 L 1489.00 606.00 L 1492.00 612.00 L 1494.00 615.00 L 1503.00 624.00 L 1507.00 627.00 L 1514.00 631.00 L 1517.00 632.00 L 1520.00 633.00 L 1526.00 634.00 L 1543.00 634.00 L 1548.00 633.00 L 1551.00 632.00 L 1554.00 631.00 L 1560.00 628.00 L 1563.00 626.00 L 1567.00 623.00 L 1574.00 616.00 L 1576.00 613.00 L 1578.00 610.00 L 1579.00 608.00 L 1580.00 606.00 L 1582.00 601.00 L 1584.00 594.00 L 1584.00 576.00 L 1581.00 567.00 L 1577.00 559.00 L 1575.00 556.00 L 1565.00 546.00 L 1562.00 544.00 L 1557.00 541.00 L 1555.00 540.00 L 1552.00 539.00 L 1549.00 538.00 L 1545.00 537.00 Z
M 1529.00 555.00 L 1540.00 555.00 L 1544.00 556.00 L 1547.00 557.00 L 1549.00 558.00 L 1552.00 560.00 L 1559.00 567.00 L 1562.00 573.00 L 1563.00 576.00 L 1564.00 581.00 L 1564.00 590.00 L 1563.00 595.00 L 1562.00 598.00 L 1561.00 600.00 L 1560.00 602.00 L 1558.00 605.00 L 1553.00 610.00 L 1550.00 612.00 L 1544.00 615.00 L 1537.00 616.00 L 1531.00 616.00 L 1526.00 615.00 L 1523.00 614.00 L 1520.00 613.00 L 1517.00 611.00 L 1510.00 604.00 L 1508.00 601.00 L 1507.00 599.00 L 1506.00 596.00 L 1505.00 592.00 L 1505.00 578.00 L 1506.00 575.00 L 1507.00 572.00 L 1508.00 570.00 L 1509.00 568.00 L 1518.00 559.00 L 1520.00 558.00 L 1522.00 557.00 L 1525.00 556.00 Z
M 1367.00 537.00 L 1362.00 538.00 L 1358.00 539.00 L 1352.00 542.00 L 1347.00 545.00 L 1343.00 548.00 L 1338.00 553.00 L 1335.00 557.00 L 1333.00 560.00 L 1330.00 566.00 L 1329.00 569.00 L 1328.00 574.00 L 1327.00 583.00 L 1327.00 588.00 L 1328.00 597.00 L 1329.00 602.00 L 1330.00 605.00 L 1333.00 611.00 L 1335.00 614.00 L 1337.00 617.00 L 1344.00 624.00 L 1347.00 626.00 L 1350.00 628.00 L 1358.00 632.00 L 1361.00 633.00 L 1367.00 634.00 L 1384.00 634.00 L 1389.00 633.00 L 1393.00 632.00 L 1397.00 631.00 L 1399.00 630.00 L 1401.00 629.00 L 1406.00 626.00 L 1409.00 624.00 L 1414.00 619.00 L 1414.00 617.00 L 1411.00 613.00 L 1403.00 606.00 L 1399.00 610.00 L 1396.00 612.00 L 1394.00 613.00 L 1392.00 614.00 L 1389.00 615.00 L 1386.00 616.00 L 1382.00 617.00 L 1372.00 617.00 L 1367.00 616.00 L 1363.00 614.00 L 1357.00 611.00 L 1351.00 605.00 L 1350.00 603.00 L 1349.00 601.00 L 1348.00 598.00 L 1349.00 594.00 L 1421.00 594.00 L 1421.00 571.00 L 1418.00 562.00 L 1415.00 556.00 L 1412.00 552.00 L 1409.00 549.00 L 1408.00 549.00 L 1404.00 545.00 L 1399.00 542.00 L 1397.00 541.00 L 1395.00 540.00 L 1392.00 539.00 L 1389.00 538.00 L 1383.00 537.00 Z
M 1372.00 554.00 L 1379.00 554.00 L 1384.00 555.00 L 1387.00 556.00 L 1393.00 560.00 L 1397.00 564.00 L 1399.00 567.00 L 1400.00 570.00 L 1401.00 574.00 L 1400.00 578.00 L 1348.00 577.00 L 1348.00 573.00 L 1349.00 570.00 L 1350.00 568.00 L 1351.00 566.00 L 1357.00 560.00 L 1360.00 558.00 L 1362.00 557.00 L 1364.00 556.00 L 1367.00 555.00 Z
M 1156.00 537.00 L 1151.00 538.00 L 1148.00 539.00 L 1140.00 543.00 L 1137.00 545.00 L 1133.00 548.00 L 1127.00 554.00 L 1124.00 558.00 L 1120.00 566.00 L 1119.00 569.00 L 1118.00 573.00 L 1117.00 580.00 L 1117.00 591.00 L 1118.00 598.00 L 1119.00 602.00 L 1120.00 605.00 L 1124.00 613.00 L 1127.00 617.00 L 1134.00 624.00 L 1138.00 627.00 L 1145.00 631.00 L 1148.00 632.00 L 1151.00 633.00 L 1156.00 634.00 L 1174.00 634.00 L 1179.00 633.00 L 1183.00 632.00 L 1186.00 631.00 L 1190.00 629.00 L 1196.00 626.00 L 1200.00 623.00 L 1204.00 619.00 L 1204.00 617.00 L 1195.00 607.00 L 1192.00 606.00 L 1187.00 611.00 L 1184.00 613.00 L 1182.00 614.00 L 1179.00 615.00 L 1176.00 616.00 L 1162.00 617.00 L 1157.00 616.00 L 1150.00 613.00 L 1147.00 611.00 L 1140.00 604.00 L 1139.00 602.00 L 1138.00 600.00 L 1137.00 596.00 L 1139.00 594.00 L 1211.00 594.00 L 1211.00 575.00 L 1210.00 569.00 L 1209.00 566.00 L 1208.00 563.00 L 1204.00 555.00 L 1195.00 546.00 L 1187.00 541.00 L 1182.00 539.00 L 1179.00 538.00 L 1173.00 537.00 Z
M 1162.00 554.00 L 1169.00 554.00 L 1177.00 556.00 L 1180.00 558.00 L 1183.00 561.00 L 1184.00 561.00 L 1186.00 563.00 L 1188.00 566.00 L 1189.00 568.00 L 1190.00 570.00 L 1191.00 574.00 L 1190.00 578.00 L 1138.00 579.00 L 1137.00 575.00 L 1138.00 571.00 L 1139.00 569.00 L 1140.00 567.00 L 1148.00 559.00 L 1154.00 556.00 L 1157.00 555.00 Z
M 861.00 537.00 L 856.00 538.00 L 852.00 539.00 L 846.00 542.00 L 841.00 545.00 L 836.00 549.00 L 832.00 553.00 L 829.00 557.00 L 826.00 562.00 L 825.00 564.00 L 824.00 566.00 L 823.00 570.00 L 822.00 574.00 L 821.00 586.00 L 822.00 597.00 L 823.00 601.00 L 824.00 605.00 L 827.00 611.00 L 829.00 614.00 L 831.00 617.00 L 838.00 624.00 L 841.00 626.00 L 844.00 628.00 L 852.00 632.00 L 856.00 633.00 L 861.00 634.00 L 878.00 634.00 L 884.00 633.00 L 888.00 632.00 L 891.00 631.00 L 897.00 628.00 L 900.00 626.00 L 903.00 624.00 L 908.00 619.00 L 908.00 617.00 L 906.00 614.00 L 897.00 606.00 L 893.00 610.00 L 890.00 612.00 L 888.00 613.00 L 886.00 614.00 L 883.00 615.00 L 880.00 616.00 L 876.00 617.00 L 866.00 617.00 L 862.00 616.00 L 859.00 615.00 L 853.00 612.00 L 850.00 610.00 L 846.00 606.00 L 844.00 603.00 L 843.00 601.00 L 842.00 598.00 L 843.00 594.00 L 915.00 594.00 L 915.00 571.00 L 914.00 567.00 L 913.00 564.00 L 909.00 556.00 L 906.00 552.00 L 902.00 548.00 L 898.00 545.00 L 895.00 543.00 L 889.00 540.00 L 886.00 539.00 L 883.00 538.00 L 877.00 537.00 Z
M 866.00 554.00 L 873.00 554.00 L 878.00 555.00 L 884.00 558.00 L 887.00 560.00 L 891.00 564.00 L 893.00 567.00 L 895.00 573.00 L 894.00 578.00 L 842.00 577.00 L 842.00 573.00 L 843.00 570.00 L 844.00 568.00 L 845.00 566.00 L 851.00 560.00 L 856.00 557.00 L 861.00 555.00 Z
M 802.00 537.00 L 798.00 538.00 L 793.00 540.00 L 790.00 542.00 L 786.00 546.00 L 785.00 546.00 L 782.00 549.00 L 782.00 550.00 L 777.00 552.00 L 777.00 538.00 L 757.00 539.00 L 758.00 633.00 L 777.00 633.00 L 777.00 589.00 L 778.00 581.00 L 780.00 575.00 L 781.00 572.00 L 783.00 569.00 L 785.00 566.00 L 788.00 563.00 L 791.00 561.00 L 793.00 560.00 L 795.00 559.00 L 798.00 558.00 L 803.00 557.00 L 808.00 557.00 L 808.00 537.00 Z
M 682.00 537.00 L 677.00 538.00 L 673.00 539.00 L 670.00 540.00 L 664.00 543.00 L 659.00 546.00 L 656.00 548.00 L 654.00 550.00 L 654.00 552.00 L 655.00 554.00 L 658.00 557.00 L 660.00 560.00 L 660.00 561.00 L 665.00 562.00 L 673.00 557.00 L 678.00 555.00 L 682.00 554.00 L 689.00 553.00 L 691.00 553.00 L 697.00 554.00 L 700.00 555.00 L 702.00 556.00 L 708.00 562.00 L 709.00 564.00 L 710.00 568.00 L 709.00 575.00 L 678.00 575.00 L 671.00 576.00 L 667.00 577.00 L 664.00 578.00 L 662.00 579.00 L 660.00 580.00 L 655.00 583.00 L 651.00 587.00 L 649.00 590.00 L 648.00 592.00 L 647.00 596.00 L 647.00 611.00 L 648.00 615.00 L 649.00 617.00 L 650.00 619.00 L 652.00 622.00 L 657.00 627.00 L 660.00 629.00 L 663.00 631.00 L 666.00 632.00 L 669.00 633.00 L 673.00 634.00 L 688.00 634.00 L 693.00 633.00 L 696.00 632.00 L 702.00 629.00 L 708.00 624.00 L 710.00 623.00 L 711.00 631.00 L 712.00 633.00 L 730.00 633.00 L 730.00 565.00 L 729.00 559.00 L 728.00 556.00 L 727.00 554.00 L 726.00 552.00 L 724.00 549.00 L 720.00 545.00 L 717.00 543.00 L 714.00 541.00 L 712.00 540.00 L 709.00 539.00 L 706.00 538.00 L 702.00 537.00 Z
M 685.00 589.00 L 710.00 590.00 L 710.00 600.00 L 709.00 604.00 L 708.00 606.00 L 706.00 609.00 L 704.00 611.00 L 701.00 613.00 L 695.00 616.00 L 692.00 616.00 L 691.00 617.00 L 689.00 617.00 L 683.00 617.00 L 681.00 617.00 L 680.00 616.00 L 677.00 616.00 L 675.00 615.00 L 673.00 614.00 L 668.00 609.00 L 667.00 607.00 L 667.00 599.00 L 668.00 597.00 L 673.00 592.00 L 675.00 591.00 L 678.00 590.00 Z
M 268.00 537.00 L 264.00 538.00 L 260.00 539.00 L 254.00 542.00 L 251.00 544.00 L 248.00 546.00 L 239.00 555.00 L 236.00 559.00 L 233.00 564.00 L 232.00 567.00 L 231.00 570.00 L 230.00 574.00 L 229.00 580.00 L 229.00 590.00 L 230.00 597.00 L 231.00 601.00 L 232.00 604.00 L 235.00 610.00 L 237.00 613.00 L 240.00 617.00 L 247.00 624.00 L 250.00 626.00 L 253.00 628.00 L 261.00 632.00 L 265.00 633.00 L 271.00 634.00 L 287.00 634.00 L 292.00 633.00 L 296.00 632.00 L 299.00 631.00 L 301.00 630.00 L 303.00 629.00 L 306.00 627.00 L 309.00 625.00 L 314.00 621.00 L 315.00 620.00 L 319.00 615.00 L 321.00 612.00 L 323.00 609.00 L 326.00 603.00 L 327.00 599.00 L 328.00 595.00 L 328.00 576.00 L 327.00 571.00 L 326.00 568.00 L 322.00 560.00 L 320.00 557.00 L 318.00 554.00 L 311.00 547.00 L 308.00 545.00 L 305.00 543.00 L 297.00 539.00 L 293.00 538.00 L 289.00 537.00 Z
M 273.00 555.00 L 284.00 555.00 L 289.00 556.00 L 291.00 557.00 L 293.00 558.00 L 296.00 560.00 L 303.00 567.00 L 307.00 575.00 L 308.00 580.00 L 308.00 591.00 L 307.00 596.00 L 304.00 602.00 L 302.00 605.00 L 296.00 611.00 L 288.00 615.00 L 282.00 615.00 L 281.00 616.00 L 276.00 616.00 L 270.00 615.00 L 267.00 614.00 L 265.00 613.00 L 262.00 611.00 L 259.00 609.00 L 257.00 607.00 L 257.00 606.00 L 254.00 603.00 L 251.00 597.00 L 250.00 593.00 L 250.00 577.00 L 251.00 574.00 L 255.00 566.00 L 260.00 561.00 L 264.00 558.00 L 266.00 557.00 L 269.00 556.00 Z
M 988.00 509.00 L 988.00 633.00 L 1041.00 633.00 L 1050.00 632.00 L 1055.00 631.00 L 1058.00 630.00 L 1061.00 629.00 L 1066.00 627.00 L 1074.00 623.00 L 1077.00 621.00 L 1080.00 618.00 L 1081.00 618.00 L 1083.00 616.00 L 1088.00 610.00 L 1090.00 607.00 L 1092.00 604.00 L 1093.00 602.00 L 1094.00 600.00 L 1097.00 591.00 L 1098.00 587.00 L 1099.00 582.00 L 1100.00 577.00 L 1100.00 563.00 L 1099.00 558.00 L 1098.00 553.00 L 1097.00 549.00 L 1096.00 546.00 L 1095.00 543.00 L 1092.00 537.00 L 1090.00 534.00 L 1087.00 530.00 L 1080.00 523.00 L 1076.00 520.00 L 1071.00 517.00 L 1063.00 513.00 L 1059.00 512.00 L 1051.00 510.00 L 1045.00 509.00 Z
M 1010.00 528.00 L 1037.00 528.00 L 1045.00 529.00 L 1049.00 530.00 L 1052.00 531.00 L 1057.00 533.00 L 1059.00 534.00 L 1065.00 538.00 L 1069.00 542.00 L 1072.00 546.00 L 1076.00 554.00 L 1077.00 557.00 L 1078.00 562.00 L 1078.00 579.00 L 1077.00 584.00 L 1076.00 587.00 L 1075.00 590.00 L 1074.00 592.00 L 1073.00 594.00 L 1071.00 597.00 L 1063.00 605.00 L 1060.00 607.00 L 1058.00 608.00 L 1056.00 609.00 L 1053.00 610.00 L 1050.00 611.00 L 1046.00 612.00 L 1039.00 613.00 L 1009.00 612.00 Z
M 423.00 509.00 L 422.00 538.00 L 411.00 539.00 L 411.00 554.00 L 413.00 554.00 L 414.00 555.00 L 422.00 554.00 L 423.00 606.00 L 424.00 612.00 L 425.00 615.00 L 428.00 621.00 L 436.00 629.00 L 439.00 631.00 L 441.00 632.00 L 444.00 633.00 L 448.00 634.00 L 461.00 634.00 L 465.00 633.00 L 467.00 632.00 L 469.00 631.00 L 472.00 629.00 L 475.00 627.00 L 477.00 624.00 L 475.00 620.00 L 470.00 611.00 L 468.00 611.00 L 465.00 614.00 L 463.00 615.00 L 461.00 616.00 L 451.00 616.00 L 445.00 610.00 L 444.00 608.00 L 443.00 601.00 L 443.00 556.00 L 445.00 554.00 L 466.00 555.00 L 468.00 554.00 L 468.00 538.00 L 443.00 537.00 L 443.00 509.00 Z
M 157.00 505.00 L 152.00 506.00 L 143.00 509.00 L 137.00 512.00 L 133.00 515.00 L 129.00 519.00 L 126.00 523.00 L 125.00 525.00 L 124.00 527.00 L 123.00 530.00 L 122.00 534.00 L 122.00 549.00 L 123.00 554.00 L 124.00 557.00 L 125.00 559.00 L 128.00 563.00 L 132.00 567.00 L 136.00 570.00 L 139.00 572.00 L 141.00 573.00 L 146.00 575.00 L 156.00 578.00 L 166.00 581.00 L 173.00 582.00 L 176.00 583.00 L 179.00 584.00 L 181.00 585.00 L 183.00 586.00 L 186.00 588.00 L 188.00 590.00 L 190.00 593.00 L 191.00 597.00 L 191.00 600.00 L 190.00 604.00 L 188.00 607.00 L 186.00 609.00 L 183.00 611.00 L 181.00 612.00 L 179.00 613.00 L 174.00 614.00 L 162.00 614.00 L 157.00 613.00 L 148.00 610.00 L 146.00 609.00 L 144.00 608.00 L 139.00 605.00 L 135.00 602.00 L 130.00 598.00 L 125.00 603.00 L 122.00 608.00 L 118.00 612.00 L 117.00 614.00 L 122.00 619.00 L 126.00 622.00 L 131.00 625.00 L 133.00 626.00 L 142.00 630.00 L 145.00 631.00 L 148.00 632.00 L 152.00 633.00 L 158.00 634.00 L 178.00 634.00 L 183.00 633.00 L 187.00 632.00 L 190.00 631.00 L 192.00 630.00 L 197.00 627.00 L 200.00 625.00 L 207.00 618.00 L 211.00 610.00 L 212.00 606.00 L 213.00 600.00 L 213.00 595.00 L 212.00 594.00 L 212.00 588.00 L 211.00 584.00 L 208.00 578.00 L 206.00 575.00 L 203.00 572.00 L 200.00 570.00 L 197.00 568.00 L 189.00 564.00 L 184.00 562.00 L 177.00 560.00 L 166.00 558.00 L 157.00 555.00 L 149.00 551.00 L 146.00 548.00 L 145.00 546.00 L 144.00 543.00 L 144.00 536.00 L 145.00 534.00 L 146.00 532.00 L 149.00 529.00 L 155.00 526.00 L 159.00 525.00 L 171.00 525.00 L 177.00 526.00 L 186.00 529.00 L 192.00 532.00 L 195.00 535.00 L 199.00 535.00 L 202.00 531.00 L 205.00 527.00 L 207.00 524.00 L 209.00 520.00 L 207.00 518.00 L 204.00 516.00 L 199.00 513.00 L 192.00 510.00 L 183.00 507.00 L 179.00 506.00 L 173.00 505.00 Z
M 1443.00 501.00 L 1442.00 503.00 L 1442.00 631.00 L 1443.00 633.00 L 1463.00 632.00 L 1463.00 503.00 L 1462.00 501.00 Z
M 379.00 499.00 L 375.00 500.00 L 372.00 501.00 L 369.00 503.00 L 365.00 506.00 L 362.00 509.00 L 360.00 512.00 L 358.00 515.00 L 357.00 517.00 L 356.00 520.00 L 355.00 526.00 L 354.00 538.00 L 343.00 539.00 L 343.00 554.00 L 345.00 554.00 L 346.00 555.00 L 354.00 554.00 L 355.00 633.00 L 375.00 633.00 L 376.00 554.00 L 398.00 555.00 L 400.00 554.00 L 400.00 538.00 L 375.00 537.00 L 375.00 532.00 L 376.00 531.00 L 376.00 525.00 L 377.00 523.00 L 378.00 521.00 L 381.00 518.00 L 383.00 517.00 L 386.00 516.00 L 391.00 516.00 L 394.00 517.00 L 402.00 521.00 L 402.00 520.00 L 404.00 518.00 L 409.00 508.00 L 407.00 506.00 L 403.00 503.00 L 401.00 502.00 L 399.00 501.00 L 396.00 500.00 L 393.00 499.00 Z
M 943.00 351.00 L 941.00 352.00 L 938.00 355.00 L 937.00 357.00 L 936.00 361.00 L 937.00 365.00 L 938.00 367.00 L 941.00 370.00 L 943.00 371.00 L 947.00 372.00 L 951.00 371.00 L 953.00 370.00 L 956.00 367.00 L 957.00 365.00 L 957.00 357.00 L 956.00 355.00 L 953.00 352.00 L 951.00 351.00 Z
M 947.00 357.00 L 949.00 358.00 L 949.00 364.00 L 948.00 364.00 L 946.00 365.00 L 943.00 362.00 L 943.00 360.00 L 945.00 358.00 Z
M 896.00 329.00 L 894.00 330.00 L 893.00 393.00 L 895.00 394.00 L 999.00 394.00 L 1001.00 392.00 L 1000.00 330.00 L 998.00 329.00 Z
M 900.00 336.00 L 995.00 337.00 L 994.00 387.00 L 899.00 386.00 Z
M 1087.00 110.00 L 1084.00 111.00 L 1082.00 112.00 L 1079.00 115.00 L 1078.00 117.00 L 1077.00 119.00 L 1077.00 128.00 L 1078.00 130.00 L 1080.00 133.00 L 1083.00 135.00 L 1086.00 136.00 L 1086.00 143.00 L 965.00 143.00 L 963.00 141.00 L 962.00 138.00 L 960.00 135.00 L 956.00 132.00 L 954.00 131.00 L 951.00 130.00 L 943.00 130.00 L 940.00 131.00 L 938.00 132.00 L 935.00 134.00 L 933.00 136.00 L 931.00 139.00 L 930.00 142.00 L 929.00 148.00 L 930.00 153.00 L 931.00 155.00 L 932.00 157.00 L 934.00 160.00 L 938.00 163.00 L 940.00 164.00 L 944.00 165.00 L 943.00 171.00 L 881.00 172.00 L 881.00 183.00 L 882.00 190.00 L 883.00 194.00 L 884.00 198.00 L 885.00 201.00 L 886.00 204.00 L 888.00 209.00 L 889.00 211.00 L 890.00 213.00 L 893.00 218.00 L 895.00 221.00 L 898.00 225.00 L 909.00 236.00 L 913.00 239.00 L 917.00 241.00 L 883.00 242.00 L 881.00 244.00 L 880.00 258.00 L 847.00 258.00 L 845.00 260.00 L 845.00 263.00 L 846.00 265.00 L 849.00 269.00 L 865.00 288.00 L 868.00 292.00 L 868.00 411.00 L 863.00 417.00 L 850.00 430.00 L 842.00 439.00 L 842.00 442.00 L 843.00 444.00 L 1050.00 444.00 L 1052.00 442.00 L 1052.00 440.00 L 1051.00 438.00 L 1040.00 426.00 L 1027.00 413.00 L 1026.00 411.00 L 1026.00 292.00 L 1028.00 289.00 L 1032.00 284.00 L 1040.00 275.00 L 1047.00 266.00 L 1049.00 263.00 L 1049.00 260.00 L 1047.00 258.00 L 1013.00 257.00 L 1013.00 244.00 L 1011.00 242.00 L 977.00 241.00 L 982.00 238.00 L 986.00 235.00 L 995.00 226.00 L 998.00 222.00 L 1000.00 219.00 L 1002.00 216.00 L 1004.00 212.00 L 1007.00 206.00 L 1010.00 197.00 L 1011.00 193.00 L 1012.00 189.00 L 1013.00 181.00 L 1013.00 173.00 L 1012.00 171.00 L 951.00 170.00 L 952.00 164.00 L 954.00 163.00 L 957.00 162.00 L 962.00 157.00 L 963.00 155.00 L 963.00 153.00 L 964.00 151.00 L 1093.00 149.00 L 1094.00 136.00 L 1097.00 135.00 L 1100.00 133.00 L 1102.00 130.00 L 1103.00 128.00 L 1103.00 119.00 L 1102.00 117.00 L 1101.00 115.00 L 1098.00 112.00 L 1096.00 111.00 L 1093.00 110.00 Z
M 874.00 416.00 L 1020.00 416.00 L 1031.00 427.00 L 1031.00 428.00 L 1040.00 437.00 L 854.00 437.00 L 859.00 432.00 L 859.00 431.00 Z
M 876.00 295.00 L 1019.00 296.00 L 1018.00 410.00 L 875.00 409.00 Z
M 856.00 266.00 L 1037.00 267.00 L 1033.00 271.00 L 1030.00 276.00 L 1026.00 281.00 L 1022.00 286.00 L 1020.00 288.00 L 874.00 288.00 L 871.00 285.00 L 871.00 284.00 L 863.00 275.00 L 859.00 270.00 L 859.00 269.00 Z
M 889.00 249.00 L 1006.00 250.00 L 1005.00 258.00 L 888.00 257.00 Z
M 889.00 177.00 L 1006.00 178.00 L 1006.00 183.00 L 1005.00 189.00 L 1004.00 193.00 L 1001.00 202.00 L 995.00 214.00 L 992.00 218.00 L 989.00 222.00 L 982.00 229.00 L 978.00 232.00 L 975.00 234.00 L 972.00 236.00 L 970.00 237.00 L 968.00 238.00 L 963.00 240.00 L 959.00 241.00 L 955.00 242.00 L 939.00 242.00 L 934.00 241.00 L 931.00 240.00 L 928.00 239.00 L 920.00 235.00 L 917.00 233.00 L 913.00 230.00 L 904.00 221.00 L 901.00 217.00 L 899.00 214.00 L 897.00 211.00 L 893.00 203.00 L 890.00 194.00 L 889.00 190.00 L 888.00 184.00 Z
M 944.00 137.00 L 950.00 137.00 L 952.00 138.00 L 956.00 142.00 L 957.00 144.00 L 957.00 146.00 L 957.00 149.00 L 957.00 151.00 L 956.00 153.00 L 952.00 157.00 L 949.00 158.00 L 944.00 158.00 L 942.00 157.00 L 937.00 152.00 L 936.00 149.00 L 936.00 146.00 L 937.00 143.00 L 942.00 138.00 Z
M 1088.00 117.00 L 1092.00 117.00 L 1094.00 118.00 L 1095.00 119.00 L 1097.00 124.00 L 1096.00 126.00 L 1093.00 129.00 L 1091.00 130.00 L 1089.00 130.00 L 1087.00 129.00 L 1084.00 126.00 L 1084.00 122.00 L 1084.00 120.00 L 1086.00 118.00 Z"/><path fill="#7a9e94" d="M 1696.00 746.00 L 1696.00 755.00 L 1703.00 755.00 L 1703.00 746.00 Z
M 1678.00 746.00 L 1678.00 755.00 L 1685.00 755.00 L 1685.00 746.00 Z
M 1660.00 746.00 L 1660.00 755.00 L 1667.00 755.00 L 1667.00 746.00 Z
M 1444.00 746.00 L 1444.00 755.00 L 1447.00 758.00 L 1447.00 760.00 L 1444.00 765.00 L 1449.00 764.00 L 1450.00 762.00 L 1451.00 759.00 L 1451.00 746.00 Z
M 1148.00 746.00 L 1148.00 755.00 L 1151.00 758.00 L 1151.00 760.00 L 1148.00 765.00 L 1153.00 764.00 L 1154.00 762.00 L 1155.00 759.00 L 1155.00 746.00 Z
M 1581.00 722.00 L 1581.00 746.00 L 1582.00 750.00 L 1584.00 753.00 L 1586.00 754.00 L 1588.00 755.00 L 1596.00 755.00 L 1598.00 754.00 L 1602.00 749.00 L 1604.00 753.00 L 1604.00 755.00 L 1611.00 755.00 L 1611.00 753.00 L 1610.00 722.00 L 1603.00 722.00 L 1603.00 744.00 L 1602.00 746.00 L 1598.00 750.00 L 1594.00 750.00 L 1592.00 750.00 L 1590.00 748.00 L 1589.00 746.00 L 1589.00 722.00 Z
M 1552.00 722.00 L 1549.00 723.00 L 1547.00 724.00 L 1543.00 728.00 L 1542.00 730.00 L 1541.00 733.00 L 1541.00 744.00 L 1542.00 747.00 L 1543.00 749.00 L 1547.00 753.00 L 1549.00 754.00 L 1552.00 755.00 L 1562.00 755.00 L 1565.00 754.00 L 1567.00 753.00 L 1571.00 749.00 L 1572.00 747.00 L 1573.00 744.00 L 1573.00 732.00 L 1572.00 730.00 L 1571.00 728.00 L 1567.00 724.00 L 1565.00 723.00 L 1563.00 722.00 Z
M 1556.00 727.00 L 1559.00 727.00 L 1561.00 727.00 L 1564.00 730.00 L 1565.00 732.00 L 1566.00 736.00 L 1566.00 740.00 L 1565.00 745.00 L 1564.00 747.00 L 1562.00 749.00 L 1558.00 751.00 L 1556.00 751.00 L 1554.00 750.00 L 1552.00 749.00 L 1551.00 748.00 L 1550.00 746.00 L 1549.00 744.00 L 1549.00 732.00 L 1551.00 730.00 L 1551.00 729.00 L 1552.00 728.00 L 1554.00 727.00 Z
M 1414.00 722.00 L 1410.00 724.00 L 1408.00 726.00 L 1407.00 728.00 L 1407.00 734.00 L 1408.00 736.00 L 1410.00 738.00 L 1412.00 739.00 L 1415.00 740.00 L 1418.00 741.00 L 1422.00 741.00 L 1425.00 742.00 L 1428.00 745.00 L 1427.00 749.00 L 1425.00 750.00 L 1422.00 751.00 L 1419.00 751.00 L 1415.00 750.00 L 1412.00 746.00 L 1406.00 747.00 L 1406.00 749.00 L 1407.00 751.00 L 1409.00 753.00 L 1411.00 754.00 L 1414.00 755.00 L 1426.00 755.00 L 1429.00 754.00 L 1431.00 753.00 L 1434.00 750.00 L 1435.00 747.00 L 1435.00 744.00 L 1434.00 741.00 L 1431.00 738.00 L 1429.00 737.00 L 1426.00 736.00 L 1422.00 736.00 L 1418.00 735.00 L 1416.00 734.00 L 1414.00 732.00 L 1414.00 729.00 L 1416.00 727.00 L 1419.00 726.00 L 1422.00 726.00 L 1425.00 727.00 L 1427.00 730.00 L 1434.00 730.00 L 1433.00 727.00 L 1430.00 724.00 L 1428.00 723.00 L 1426.00 722.00 Z
M 1368.00 722.00 L 1368.00 746.00 L 1369.00 750.00 L 1371.00 753.00 L 1373.00 754.00 L 1375.00 755.00 L 1383.00 755.00 L 1385.00 754.00 L 1389.00 749.00 L 1391.00 753.00 L 1391.00 755.00 L 1398.00 755.00 L 1398.00 753.00 L 1397.00 722.00 L 1390.00 722.00 L 1390.00 744.00 L 1389.00 746.00 L 1385.00 750.00 L 1381.00 750.00 L 1379.00 750.00 L 1377.00 748.00 L 1376.00 746.00 L 1376.00 722.00 Z
M 1307.00 722.00 L 1308.00 755.00 L 1315.00 755.00 L 1315.00 735.00 L 1316.00 732.00 L 1317.00 730.00 L 1318.00 729.00 L 1322.00 727.00 L 1326.00 728.00 L 1326.00 722.00 L 1321.00 722.00 L 1319.00 723.00 L 1317.00 726.00 L 1316.00 729.00 L 1314.00 722.00 Z
M 1280.00 722.00 L 1277.00 723.00 L 1273.00 727.00 L 1272.00 730.00 L 1280.00 730.00 L 1282.00 727.00 L 1284.00 726.00 L 1286.00 726.00 L 1288.00 727.00 L 1290.00 729.00 L 1291.00 731.00 L 1290.00 735.00 L 1280.00 735.00 L 1276.00 736.00 L 1274.00 737.00 L 1271.00 740.00 L 1270.00 743.00 L 1270.00 748.00 L 1271.00 751.00 L 1274.00 754.00 L 1276.00 755.00 L 1284.00 755.00 L 1286.00 754.00 L 1291.00 749.00 L 1292.00 752.00 L 1293.00 754.00 L 1295.00 755.00 L 1303.00 754.00 L 1303.00 751.00 L 1299.00 750.00 L 1298.00 748.00 L 1298.00 730.00 L 1297.00 727.00 L 1293.00 723.00 L 1291.00 722.00 Z
M 1281.00 739.00 L 1291.00 740.00 L 1291.00 743.00 L 1290.00 745.00 L 1289.00 747.00 L 1286.00 750.00 L 1284.00 750.00 L 1282.00 751.00 L 1280.00 750.00 L 1278.00 748.00 L 1278.00 742.00 Z
M 1233.00 722.00 L 1233.00 746.00 L 1234.00 750.00 L 1236.00 753.00 L 1238.00 754.00 L 1240.00 755.00 L 1248.00 755.00 L 1250.00 754.00 L 1254.00 749.00 L 1256.00 753.00 L 1256.00 755.00 L 1263.00 755.00 L 1263.00 753.00 L 1262.00 722.00 L 1255.00 722.00 L 1255.00 744.00 L 1254.00 746.00 L 1250.00 750.00 L 1246.00 750.00 L 1244.00 750.00 L 1242.00 748.00 L 1241.00 746.00 L 1241.00 722.00 Z
M 1120.00 722.00 L 1117.00 723.00 L 1113.00 727.00 L 1112.00 730.00 L 1120.00 730.00 L 1122.00 727.00 L 1124.00 726.00 L 1126.00 726.00 L 1128.00 727.00 L 1130.00 729.00 L 1131.00 731.00 L 1130.00 735.00 L 1120.00 735.00 L 1116.00 736.00 L 1114.00 737.00 L 1111.00 740.00 L 1110.00 743.00 L 1110.00 748.00 L 1111.00 751.00 L 1114.00 754.00 L 1116.00 755.00 L 1124.00 755.00 L 1126.00 754.00 L 1131.00 749.00 L 1132.00 752.00 L 1133.00 754.00 L 1135.00 755.00 L 1143.00 754.00 L 1143.00 751.00 L 1139.00 750.00 L 1138.00 748.00 L 1138.00 730.00 L 1137.00 727.00 L 1133.00 723.00 L 1131.00 722.00 Z
M 1121.00 739.00 L 1131.00 740.00 L 1131.00 743.00 L 1130.00 745.00 L 1129.00 747.00 L 1126.00 750.00 L 1124.00 750.00 L 1122.00 751.00 L 1120.00 750.00 L 1118.00 748.00 L 1118.00 742.00 Z
M 1073.00 722.00 L 1073.00 724.00 L 1074.00 727.00 L 1075.00 730.00 L 1077.00 733.00 L 1080.00 744.00 L 1084.00 753.00 L 1084.00 755.00 L 1094.00 755.00 L 1095.00 753.00 L 1096.00 750.00 L 1096.00 748.00 L 1102.00 734.00 L 1106.00 722.00 L 1098.00 722.00 L 1098.00 724.00 L 1096.00 728.00 L 1091.00 746.00 L 1089.00 748.00 L 1088.00 746.00 L 1087.00 745.00 L 1086.00 741.00 L 1085.00 735.00 L 1082.00 726.00 L 1080.00 722.00 Z
M 1049.00 722.00 L 1046.00 723.00 L 1042.00 727.00 L 1041.00 730.00 L 1049.00 730.00 L 1051.00 727.00 L 1053.00 726.00 L 1055.00 726.00 L 1057.00 727.00 L 1059.00 729.00 L 1060.00 731.00 L 1059.00 735.00 L 1049.00 735.00 L 1045.00 736.00 L 1043.00 737.00 L 1040.00 740.00 L 1039.00 743.00 L 1039.00 748.00 L 1040.00 751.00 L 1043.00 754.00 L 1045.00 755.00 L 1053.00 755.00 L 1055.00 754.00 L 1060.00 749.00 L 1061.00 752.00 L 1062.00 754.00 L 1064.00 755.00 L 1072.00 754.00 L 1072.00 751.00 L 1068.00 750.00 L 1067.00 748.00 L 1067.00 730.00 L 1066.00 727.00 L 1062.00 723.00 L 1060.00 722.00 Z
M 1050.00 739.00 L 1060.00 740.00 L 1060.00 743.00 L 1059.00 745.00 L 1058.00 747.00 L 1055.00 750.00 L 1053.00 750.00 L 1051.00 751.00 L 1049.00 750.00 L 1047.00 748.00 L 1047.00 742.00 Z
M 1491.00 711.00 L 1488.00 712.00 L 1486.00 713.00 L 1484.00 715.00 L 1483.00 715.00 L 1482.00 716.00 L 1482.00 717.00 L 1480.00 719.00 L 1479.00 721.00 L 1478.00 723.00 L 1477.00 726.00 L 1477.00 739.00 L 1478.00 743.00 L 1479.00 745.00 L 1480.00 747.00 L 1485.00 752.00 L 1487.00 753.00 L 1489.00 754.00 L 1492.00 755.00 L 1504.00 755.00 L 1507.00 754.00 L 1509.00 753.00 L 1511.00 752.00 L 1515.00 748.00 L 1516.00 743.00 L 1514.00 743.00 L 1510.00 741.00 L 1509.00 744.00 L 1505.00 748.00 L 1503.00 749.00 L 1500.00 750.00 L 1496.00 750.00 L 1493.00 749.00 L 1491.00 748.00 L 1487.00 744.00 L 1486.00 742.00 L 1485.00 739.00 L 1485.00 727.00 L 1486.00 724.00 L 1487.00 722.00 L 1491.00 718.00 L 1493.00 717.00 L 1496.00 716.00 L 1500.00 716.00 L 1503.00 717.00 L 1505.00 718.00 L 1510.00 724.00 L 1514.00 723.00 L 1517.00 722.00 L 1516.00 720.00 L 1515.00 718.00 L 1511.00 714.00 L 1509.00 713.00 L 1507.00 712.00 L 1504.00 711.00 Z
M 1197.00 711.00 L 1194.00 712.00 L 1192.00 713.00 L 1190.00 714.00 L 1185.00 719.00 L 1184.00 721.00 L 1183.00 723.00 L 1182.00 727.00 L 1182.00 739.00 L 1183.00 742.00 L 1186.00 748.00 L 1188.00 750.00 L 1191.00 752.00 L 1193.00 753.00 L 1195.00 754.00 L 1199.00 754.00 L 1201.00 756.00 L 1203.00 761.00 L 1204.00 763.00 L 1205.00 764.00 L 1206.00 764.00 L 1208.00 766.00 L 1211.00 767.00 L 1217.00 767.00 L 1218.00 766.00 L 1221.00 766.00 L 1221.00 761.00 L 1214.00 761.00 L 1212.00 760.00 L 1210.00 758.00 L 1210.00 754.00 L 1212.00 753.00 L 1217.00 751.00 L 1221.00 747.00 L 1224.00 741.00 L 1225.00 737.00 L 1225.00 728.00 L 1224.00 724.00 L 1221.00 718.00 L 1217.00 714.00 L 1215.00 713.00 L 1213.00 712.00 L 1210.00 711.00 Z
M 1202.00 716.00 L 1205.00 716.00 L 1209.00 717.00 L 1211.00 719.00 L 1212.00 719.00 L 1213.00 720.00 L 1213.00 721.00 L 1215.00 723.00 L 1216.00 725.00 L 1217.00 729.00 L 1217.00 736.00 L 1216.00 740.00 L 1214.00 744.00 L 1212.00 746.00 L 1209.00 748.00 L 1206.00 749.00 L 1201.00 749.00 L 1198.00 748.00 L 1196.00 747.00 L 1193.00 744.00 L 1191.00 741.00 L 1190.00 738.00 L 1190.00 727.00 L 1191.00 724.00 L 1192.00 722.00 L 1196.00 718.00 L 1198.00 717.00 Z
M 1014.00 711.00 L 1014.00 717.00 L 1023.00 718.00 L 1023.00 745.00 L 1022.00 747.00 L 1020.00 749.00 L 1018.00 750.00 L 1016.00 750.00 L 1014.00 749.00 L 1011.00 746.00 L 1010.00 743.00 L 1007.00 743.00 L 1006.00 744.00 L 1002.00 744.00 L 1003.00 747.00 L 1005.00 751.00 L 1007.00 753.00 L 1009.00 754.00 L 1011.00 755.00 L 1022.00 755.00 L 1024.00 754.00 L 1026.00 753.00 L 1029.00 750.00 L 1030.00 748.00 L 1031.00 745.00 L 1031.00 711.00 Z
M 1642.00 709.00 L 1641.00 727.00 L 1637.00 723.00 L 1635.00 722.00 L 1627.00 722.00 L 1625.00 723.00 L 1621.00 727.00 L 1620.00 729.00 L 1619.00 733.00 L 1619.00 745.00 L 1620.00 748.00 L 1621.00 750.00 L 1623.00 753.00 L 1625.00 754.00 L 1627.00 755.00 L 1635.00 755.00 L 1637.00 754.00 L 1641.00 750.00 L 1642.00 755.00 L 1650.00 755.00 L 1650.00 752.00 L 1649.00 709.00 Z
M 1633.00 727.00 L 1635.00 726.00 L 1637.00 727.00 L 1639.00 728.00 L 1640.00 729.00 L 1641.00 731.00 L 1642.00 733.00 L 1642.00 743.00 L 1641.00 746.00 L 1637.00 750.00 L 1633.00 750.00 L 1631.00 750.00 L 1628.00 747.00 L 1627.00 745.00 L 1627.00 732.00 L 1628.00 730.00 L 1631.00 727.00 Z
M 1525.00 709.00 L 1525.00 755.00 L 1532.00 755.00 L 1532.00 709.00 Z
M 1333.00 709.00 L 1333.00 755.00 L 1340.00 755.00 L 1340.00 743.00 L 1342.00 741.00 L 1346.00 741.00 L 1347.00 744.00 L 1352.00 751.00 L 1353.00 754.00 L 1362.00 755.00 L 1358.00 749.00 L 1353.00 741.00 L 1350.00 736.00 L 1350.00 734.00 L 1358.00 726.00 L 1358.00 725.00 L 1361.00 722.00 L 1353.00 722.00 L 1351.00 724.00 L 1345.00 732.00 L 1341.00 736.00 L 1340.00 709.00 Z"/></g></svg>